<svg xmlns="http://www.w3.org/2000/svg" viewBox="0 0 32 32">
  <defs>
    <linearGradient id="g" x1="0" y1="0" x2="0" y2="1">
      <stop offset="0%" stop-color="#444"/>
      <stop offset="100%" stop-color="#111"/>
    </linearGradient>
  </defs>
  <rect x="6" y="27" width="20" height="3" rx="1" fill="url(#g)"/>
  <rect x="8" y="24" width="16" height="3" rx="1" fill="url(#g)"/>
  <path d="M11 24 C11 18, 10 16, 9 14 C8 12, 8 10, 9 8 C10 6, 12 4, 14 3 C15 2.5, 16 2, 18 2 C19 2, 20 3, 20 4 C20 5, 19 6, 18 6 C17 6, 17 7, 18 8 C19 9, 21 10, 22 12 C23 14, 23 18, 22 24 Z" fill="url(#g)"/>
  <circle cx="13" cy="9" r="1.2" fill="#fff"/>
  <path d="M10 14 C11 13, 12 13, 13 14" stroke="#fff" stroke-width="0.8" fill="none" stroke-linecap="round"/>
</svg>
